<svg xmlns="http://www.w3.org/2000/svg" viewBox="0 0 1200 900">
  <defs>
    <linearGradient id="bg" x1="0" y1="0" x2="1" y2="1"><stop stop-color="#2a1833"/><stop offset="1" stop-color="#8c506e"/></linearGradient>
    <linearGradient id="paper" x1="0" y1="0" x2="0" y2="1"><stop stop-color="#fffaf0"/><stop offset="1" stop-color="#f0d9bf"/></linearGradient>
  </defs>
  <rect width="1200" height="900" fill="url(#bg)"/>
  <circle cx="170" cy="160" r="120" fill="#d48aac" opacity=".18"/><circle cx="1040" cy="730" r="220" fill="#6d52a2" opacity=".25"/>
  <g transform="translate(180 180) rotate(-4 420 270)">
    <rect width="840" height="540" rx="26" fill="url(#paper)"/>
    <path d="M0 55 420 350 840 55" fill="#f7e8d3" stroke="#d2b79e" stroke-width="5"/>
    <path d="M0 540 330 275c54-42 126-42 180 0l330 265" fill="#ead3bb" opacity=".92"/>
    <circle cx="420" cy="340" r="78" fill="#b53b62"/>
    <path d="M420 391s-43-24-43-60c0-20 25-31 39-14l4 5 4-5c14-17 39-6 39 14 0 36-43 60-43 60Z" fill="#ffd1dc"/>
  </g>
</svg>
